<svg width="512" height="512" viewBox="0 0 512 512" fill="none" xmlns="http://www.w3.org/2000/svg">
  <path d="M267 15.5885L458.703 126.268C465.509 130.198 469.703 137.461 469.703 145.321V366.68C469.703 374.539 465.509 381.802 458.703 385.732L267 496.412C260.193 500.341 251.807 500.341 245 496.412L53.2975 385.732C46.4907 381.802 42.2975 374.539 42.2975 366.68V145.321C42.2975 137.461 46.4907 130.198 53.2975 126.268L245 15.5885C251.807 11.6585 260.193 11.6585 267 15.5885Z" fill="#1C1C28" stroke="#3E7BFA" stroke-width="16"/>
  <path d="M145.52 186.364H170.611V284.545C170.565 293.545 168.656 301.295 164.884 307.795C161.111 314.25 155.838 319.227 149.065 322.727C142.338 326.182 134.497 327.909 125.543 327.909C117.361 327.909 109.997 326.455 103.452 323.545C96.9517 320.591 91.7926 316.227 87.9744 310.455C84.1563 304.682 82.2472 297.5 82.2472 288.909H107.406C107.452 292.682 108.27 295.932 109.861 298.659C111.497 301.386 113.747 303.477 116.611 304.932C119.474 306.386 122.77 307.114 126.497 307.114C130.543 307.114 133.974 306.273 136.793 304.591C139.611 302.864 141.747 300.318 143.202 296.955C144.702 293.591 145.474 289.455 145.52 284.545V186.364ZM198.054 326V186.364H251.509C261.599 186.364 269.986 187.955 276.668 191.136C283.395 194.273 288.418 198.568 291.736 204.023C295.099 209.477 296.781 215.659 296.781 222.568C296.781 228.25 295.69 233.114 293.509 237.159C291.327 241.159 288.395 244.409 284.713 246.909C281.031 249.409 276.918 251.205 272.372 252.295V253.659C277.327 253.932 282.077 255.455 286.622 258.227C291.213 260.955 294.963 264.818 297.872 269.818C300.781 274.818 302.236 280.864 302.236 287.955C302.236 295.182 300.486 301.682 296.986 307.455C293.486 313.182 288.213 317.705 281.168 321.023C274.122 324.341 265.259 326 254.577 326H198.054ZM223.349 304.864H250.554C259.736 304.864 266.349 303.114 270.395 299.614C274.486 296.068 276.531 291.523 276.531 285.977C276.531 281.841 275.509 278.114 273.463 274.795C271.418 271.432 268.509 268.795 264.736 266.886C260.963 264.932 256.463 263.955 251.236 263.955H223.349V304.864ZM223.349 245.75H248.372C252.736 245.75 256.668 244.955 260.168 243.364C263.668 241.727 266.418 239.432 268.418 236.477C270.463 233.477 271.486 229.932 271.486 225.841C271.486 220.432 269.577 215.977 265.759 212.477C261.986 208.977 256.372 207.227 248.918 207.227H223.349V245.75ZM324.241 326V186.364H376.605C387.332 186.364 396.332 188.227 403.605 191.955C410.923 195.682 416.446 200.909 420.173 207.636C423.946 214.318 425.832 222.114 425.832 231.023C425.832 239.977 423.923 247.75 420.105 254.341C416.332 260.886 410.764 265.955 403.401 269.545C396.037 273.091 386.991 274.864 376.264 274.864H338.969V253.864H372.855C379.128 253.864 384.264 253 388.264 251.273C392.264 249.5 395.219 246.932 397.128 243.568C399.082 240.159 400.06 235.977 400.06 231.023C400.06 226.068 399.082 221.841 397.128 218.341C395.173 214.795 392.196 212.114 388.196 210.295C384.196 208.432 379.037 207.5 372.719 207.5H349.537V326H324.241ZM396.378 262.727L430.946 326H402.719L368.764 262.727H396.378Z" fill="#3E7BFA"/>
</svg>
